# xmcd CD database file
#
# Track frame offsets:
#	150
#	12547
#	23200
#	35355
#	47370
#	60162
#	72552
#	85765
#	97245
#	110267
#	123955
#	138267
#	151997
#	165197
#
# Disc length: 2371 seconds
#
# Revision: 1
# Processed by: cddbd v1.4PL0 Copyright (c) Steve Scherf et al.
# Submitted via: CDex 1.50
#
DISCID=a709410e
DTITLE=Erroll Garner - Serenade To Laura
DYEAR=1993
DGENRE=Jazz
TTITLE0=Laura
TTITLE1=This Can't Be Love
TTITLE2=The Man I Love
TTITLE3=Moonglow
TTITLE4=I Want A Little Girl
TTITLE5=It's Easy To Remember
TTITLE6=Goodbye
TTITLE7=She's Funny That Way
TTITLE8=Until The Real Thing Comes Along
TTITLE9=Confessin'
TTITLE10=Stormy Weather
TTITLE11=I Surrender Dear
TTITLE12=I'm In The Mood For Love
TTITLE13=All Of Me
EXTD=YEAR: 1993
EXTT0=
EXTT1=
EXTT2=
EXTT3=
EXTT4=
EXTT5=
EXTT6=
EXTT7=
EXTT8=
EXTT9=
EXTT10=
EXTT11=
EXTT12=
EXTT13=
PLAYORDER=
